<?xml version="1.0" standalone="no"?><!DOCTYPE svg PUBLIC "-//W3C//DTD SVG 1.1//EN" "http://www.w3.org/Graphics/SVG/1.1/DTD/svg11.dtd"><svg width="16" height="16" viewBox="0 0 16 16" version="1.1" xmlns="http://www.w3.org/2000/svg" xmlns:xlink="http://www.w3.org/1999/xlink"><defs><style type="text/css"><![CDATA[

]]></style></defs><g class="transform-group"><g transform="scale(0.015625, 0.015625)"><path d="M139.664412 435.785178c-41.111327 0-74.508971 33.373085-74.508971 74.508971 0 41.134863 33.398668 74.508971 74.508971 74.508971s74.508971-33.374108 74.508971-74.508971C214.174406 469.158263 180.775738 435.785178 139.664412 435.785178zM512.212336 435.785178c-41.111327 0-74.508971 33.373085-74.508971 74.508971 0 41.134863 33.398668 74.508971 74.508971 74.508971s74.508971-33.374108 74.508971-74.508971C586.721307 469.158263 553.323663 435.785178 512.212336 435.785178zM884.759237 435.785178c-41.11235 0-74.508971 33.373085-74.508971 74.508971 0 41.134863 33.397644 74.508971 74.508971 74.508971s74.508971-33.374108 74.508971-74.508971C959.269231 469.158263 925.871587 435.785178 884.759237 435.785178z" fill="#272636"></path></g></g></svg>