<?xml version="1.0" standalone="no"?><!DOCTYPE svg PUBLIC "-//W3C//DTD SVG 1.1//EN" "http://www.w3.org/Graphics/SVG/1.1/DTD/svg11.dtd"><svg width="16" height="16" viewBox="0 0 16 16" version="1.1" xmlns="http://www.w3.org/2000/svg" xmlns:xlink="http://www.w3.org/1999/xlink"><defs><style type="text/css"><![CDATA[

]]></style></defs><g class="transform-group"><g transform="scale(0.015625, 0.015625)"><path d="M65.155441 509.97897 65.155441 532.577664 242.886331 532.577664 242.886331 509.97897 242.886331 487.379253 65.155441 487.379253ZM65.155441 148.379399l177.731914 0 0 45.199435-177.731914 0 0-45.199435ZM331.786057 148.379399l625.692389 0 0 45.199435-625.692389 0 0-45.199435ZM65.155441 826.378084l177.731914 0 0 45.199435-177.731914 0 0-45.199435ZM331.786057 509.97897 331.786057 532.577664 957.478446 532.577664 957.478446 509.97897 957.478446 487.379253 331.786057 487.379253ZM324.679196 826.378084l632.79925 0 0 45.199435-632.79925 0 0-45.199435Z" fill="#272636"></path></g></g></svg>